                                                                                                                                                                                                                    <?xml version="1.0" encoding="UTF-8"?>
<svg version="1.1" xmlns="http://www.w3.org/2000/svg" width="800" height="1200">
<path d="M0 0 C264 0 528 0 800 0 C800 396 800 792 800 1200 C536 1200 272 1200 0 1200 C0 804 0 408 0 0 Z " fill="#F6F6F7" transform="translate(0,0)"/>
<path d="M0 0 C7.87496662 6.74997139 7.87496662 6.74997139 11.20361328 10.09008789 C11.94773468 10.83428482 12.69185608 11.57848175 13.45852661 12.3452301 C14.23791595 13.12978073 15.0173053 13.91433136 15.8203125 14.72265625 C16.64199921 15.5457579 17.46368591 16.36885956 18.31027222 17.21690369 C20.91755563 19.82974743 23.52133283 22.44605321 26.125 25.0625 C27.88127793 26.82379957 29.63778615 28.58486953 31.39453125 30.34570312 C35.2662205 34.22717483 39.13570449 38.11082933 43.00320435 41.99647522 C45.33266999 44.33379108 47.66642729 46.66678418 50 49 C50.94486112 49.94484327 51.88971299 50.88969578 52.83455658 51.83455658 C53.33955389 52.33955389 53.84455121 52.84455121 54.36485147 53.36485147 C106.82656765 105.82656765 159.28828382 158.28828382 211.75 210.75 C212.49032471 211.49016357 213.23064941 212.23032715 213.9934082 212.99291992 C215.1827169 214.18251802 216.37154766 215.37259476 217.55932617 216.5637207 C219.29239699 218.30136168 221.03117392 220.02995671 222.80078125 221.73046875 C224.23804584 223.11573927 225.62092884 224.556786 227 226 C227 226.66 227 227.32 227 228 C227.56328506 228.23796799 228.12657013 228.47593597 228.70692444 228.72111511 C231.51321949 230.28623071 233.42211809 232.18265199 235.68920898 234.4621582 C237.07601112 235.84918694 237.07601112 235.84918694 238.49082947 237.26423645 C239.4926882 238.27631514 240.49444033 239.28849936 241.49609375 240.30078125 C242.53171154 241.34013359 243.56777505 242.37904198 244.60426331 243.41752625 C247.33083157 246.15172135 250.05134762 248.89186185 252.77062988 251.63330078 C255.52644243 254.40949686 258.28784538 257.18011929 261.04882812 259.95117188 C265.91749198 264.83895868 270.78119801 269.73162369 275.64134216 274.62788391 C278.08950159 277.09001228 280.54380608 279.5458887 283 282 C284.66666667 283.66666667 286.33333333 285.33333333 288 287 C288.76441406 287.74121094 289.52882813 288.48242188 290.31640625 289.24609375 C291.14011719 290.05175781 291.96382813 290.85742188 292.8125 291.6875 C293.60269531 292.45449219 294.39289063 293.22148438 295.20703125 294.01171875 C297 296 297 296 297 298 C297.804375 298.3403125 297.804375 298.3403125 298.625 298.6875 C304.16252729 301.74771245 308.02376831 306.06543444 312.07421875 310.81640625 C316.02289607 315.29370974 320.33238813 319.45249388 324.6484375 323.57421875 C326.90714982 325.74806616 327.98493178 326.95479534 329 330 C330.32271977 330.68748429 331.65740339 331.35219095 333 332 C334.52734375 333.5859375 334.52734375 333.5859375 335.9375 335.375 C338.37101969 338.35342995 340.98445935 340.60530595 344 343 C344 343.66 344 344.32 344 345 C344.57878906 345.24105469 345.15757812 345.48210937 345.75390625 345.73046875 C348.42659668 347.24111986 349.95394554 348.97544079 351.9375 351.3125 C355.89494954 355.8832812 359.92278841 360.11719051 364.5625 364 C367.99969346 366.9055143 370.9673537 369.93470739 373 374 C373.7425 374.4125 374.485 374.825 375.25 375.25 C377.98590465 376.99103023 379.58520225 378.82965408 381.578125 381.3515625 C383.11920761 383.13820223 384.76242994 384.60014726 386.5625 386.125 C390.32444598 389.3464365 393.90350943 392.72020832 397.4375 396.1875 C397.96996338 396.69877441 398.50242676 397.21004883 399.05102539 397.73681641 C401.76093277 400.42170926 403.27432762 402.25933164 404 406 C404.928125 406.28875 405.85625 406.5775 406.8125 406.875 C410.97371626 408.34366456 411.74353399 410.28774947 414 414 C414.9075 414.9075 415.815 415.815 416.75 416.75 C417.4925 417.4925 418.235 418.235 419 419 C419 419.66 419 420.32 419 421 C419.86830444 421.13486816 419.86830444 421.13486816 420.75415039 421.27246094 C423.58219384 422.18860068 424.86141576 423.5190793 426.93359375 425.640625 C427.66513672 426.38183594 428.39667969 427.12304688 429.15039062 427.88671875 C429.90513672 428.66660156 430.65988281 429.44648437 431.4375 430.25 C432.18837891 431.01441406 432.93925781 431.77882813 433.71289062 432.56640625 C435.16944253 434.04986017 436.62292493 435.5363355 438.07299805 437.02612305 C439.63438914 438.62549553 441.21306456 440.20798188 442.796875 441.78515625 C444.86910898 443.86841276 446.86187349 445.99038909 448.8125 448.1875 C449.41707031 448.86167969 450.02164062 449.53585937 450.64453125 450.23046875 C452 452 452 452 452 454 C452.556875 454.185625 453.11375 454.37125 453.6875 454.5625 C457.01839283 456.633055 459.20822841 459.5192634 461 463 C461 464.32 461 465.64 461 467 C461.99 467.33 462.98 467.66 464 468 C465.3515625 470.9140625 465.3515625 470.9140625 466.625 474.625 C467.05039062 475.83414062 467.47578125 477.04328125 467.9140625 478.2890625 C469.88616413 485.02825873 470.1581682 491.47770538 470.125 498.4375 C470.12886719 499.24509766 470.13273437 500.05269531 470.13671875 500.88476562 C470.11522367 514.22246555 466.54982469 524.95697283 459 536 C458.44967196 536.85329706 457.89934393 537.70659412 457.33233929 538.58574867 C454.56159258 542.73794511 451.46871082 546.62868105 448.37397766 550.54208374 C447.70503406 551.38842208 447.03609046 552.23476041 446.34687585 553.10674536 C427.82116017 576.46461048 408.60421587 599.08272806 388.65084972 621.23185214 C385.88325005 624.3050656 383.12156013 627.38353297 380.36352539 630.46533203 C379.81503605 631.07800567 379.26654671 631.6906793 378.70143648 632.3219188 C371.79919531 640.05441496 365.15929343 647.92748219 358.82442856 656.13214111 C325.2984885 699.3400985 298.26064998 716.08965963 249 748 C166.83 748 84.66 748 0 748 C0 501.16 0 254.32 0 0 Z " fill="#B1DAEA" transform="translate(0,452)"/>
<path d="M0 0 C1.24958496 0.66322266 1.24958496 0.66322266 2.52441406 1.33984375 C7.28811829 3.98827083 11.00400075 6.81927016 14.73291016 10.7878418 C16.41407858 12.53811583 18.16496102 14.08472757 20.01953125 15.6484375 C26.38406668 21.14319911 32.20432485 27.22480051 38.125 33.1875 C39.34676946 34.41429732 40.56877305 35.64086153 41.79101562 36.8671875 C44.03489624 39.11916986 46.27741744 41.37248637 48.51831055 43.62744141 C51.15272023 46.27779592 53.79381457 48.92139489 56.4375 51.5625 C59.10416667 54.22916667 61.77083333 56.89583333 64.4375 59.5625 C65.01242187 60.09617187 65.58734375 60.62984375 66.1796875 61.1796875 C67.4375 62.5625 67.4375 62.5625 67.4375 64.5625 C68.118125 64.7275 68.79875 64.8925 69.5 65.0625 C72.39215605 66.53934564 73.32122124 67.42099324 75.3125 69.8515625 C78.57195034 73.66746257 82.02261547 77.21843986 85.58984375 80.7421875 C86.41289757 81.5568045 86.41289757 81.5568045 87.25257874 82.38787842 C89.54464333 84.65267899 91.84071629 86.91333614 94.14086914 89.16992188 C95.83650186 90.8355413 97.52601301 92.50717587 99.21484375 94.1796875 C99.73972885 94.69111298 100.26461395 95.20253845 100.80540466 95.72946167 C102.05445159 96.96967829 103.25152517 98.26183895 104.4375 99.5625 C104.4375 100.2225 104.4375 100.8825 104.4375 101.5625 C105.4275 101.8925 106.4175 102.2225 107.4375 102.5625 C107.4375 103.2225 107.4375 103.8825 107.4375 104.5625 C108.076875 104.830625 108.71625 105.09875 109.375 105.375 C111.4375 106.5625 111.4375 106.5625 112.4375 109.5625 C113.0975 109.5625 113.7575 109.5625 114.4375 109.5625 C116.12747323 111.20552953 117.78966394 112.87721312 119.4375 114.5625 C120.4275 115.366875 121.4175 116.17125 122.4375 117 C125.51653881 119.63001232 127.88828401 122.4250034 130.4375 125.5625 C131.2625 126.3875 132.0875 127.2125 132.9375 128.0625 C135.4375 130.5625 135.4375 130.5625 137.75 133.5 C139.73935416 135.96002155 141.85446993 137.67782494 144.4375 139.5 C147.84038219 141.93608201 149.88759364 144.36205391 152.16015625 147.8359375 C154.02472336 150.35623922 156.32245404 152.18452315 158.73828125 154.16015625 C162.87223865 157.57185903 166.0870722 161.37446525 169.4375 165.5625 C20.9375 165.5625 -127.5625 165.5625 -280.5625 165.5625 C-276.54705804 160.87781771 -274.04732661 158.12736217 -269.5625 154.5625 C-268.758125 153.593125 -267.95375 152.62375 -267.125 151.625 C-264.50459673 148.49329853 -261.72533654 146.13230469 -258.5625 143.5625 C-256.06399224 141.1829688 -253.79128255 138.85991732 -251.6875 136.125 C-249.93023571 134.005946 -248.34980497 132.48035153 -246.25 130.75 C-242.81785778 127.91443186 -240.04031712 124.7475922 -237.23828125 121.296875 C-235.5625 119.5625 -235.5625 119.5625 -233.41796875 118.515625 C-231.20362906 117.65149804 -231.20362906 117.65149804 -230.5625 114.5625 C-229.9025 114.5625 -229.2425 114.5625 -228.5625 114.5625 C-228.335625 113.985 -228.10875 113.4075 -227.875 112.8125 C-226.23050353 109.99336319 -224.1269533 108.54995131 -221.5625 106.5625 C-220.5725 105.0775 -220.5725 105.0775 -219.5625 103.5625 C-218.9025 103.5625 -218.2425 103.5625 -217.5625 103.5625 C-217.335625 103.005625 -217.10875 102.44875 -216.875 101.875 C-215.1921426 98.90996553 -213.02628626 96.90896311 -210.5625 94.5625 C-209.840625 93.799375 -209.11875 93.03625 -208.375 92.25 C-206.5625 90.5625 -206.5625 90.5625 -204.5625 90.5625 C-204.335625 89.985 -204.10875 89.4075 -203.875 88.8125 C-202.21849487 85.97277692 -200.13682012 84.61025464 -197.5625 82.5625 C-196.00123252 80.84510577 -194.51962356 79.07370141 -193.03125 77.29296875 C-190.18206598 73.93608438 -187.11572842 71.00748808 -183.6875 68.25 C-181.25974439 66.27320154 -179.2711657 64.13992341 -177.25 61.75 C-173.99270978 57.92214232 -170.41678371 54.66155132 -166.62890625 51.3671875 C-162.95635572 48.15978042 -159.68632999 44.73277913 -156.5625 41 C-154.1374903 38.11991136 -151.52983878 35.88825202 -148.5625 33.5625 C-148.005625 32.82 -147.44875 32.0775 -146.875 31.3125 C-146.441875 30.735 -146.00875 30.1575 -145.5625 29.5625 C-144.9025 29.5625 -144.2425 29.5625 -143.5625 29.5625 C-143.5625 28.9025 -143.5625 28.2425 -143.5625 27.5625 C-140.17418704 23.87521825 -136.40284635 20.76278862 -132.5625 17.5625 C-131.77488281 16.77359375 -130.98726562 15.9846875 -130.17578125 15.171875 C-95.21129412 -19.74034832 -42.17917777 -22.66066652 0 0 Z " fill="#B3DBEB" transform="translate(578.5625,1034.4375)"/>
<path d="M0 0 C118.8 0 237.6 0 360 0 C359.34 1.32 358.68 2.64 358 4 C357.34 4 356.68 4 356 4 C355.979375 4.86625 355.95875 5.7325 355.9375 6.625 C354.65900328 11.22758819 351.94527248 13.43056157 348 16 C347.34 16 346.68 16 346 16 C346 16.66 346 17.32 346 18 C345.34 18 344.68 18 344 18 C344 18.66 344 19.32 344 20 C342.64453125 21.296875 342.64453125 21.296875 340.8125 22.75 C338.31341917 24.80390044 336.19512386 26.83842136 334.1875 29.375 C333.1046875 30.674375 333.1046875 30.674375 332 32 C331.34 32 330.68 32 330 32 C330 32.66 330 33.32 330 34 C329.34 34 328.68 34 328 34 C327.34 35.32 326.68 36.64 326 38 C325.34 38 324.68 38 324 38 C323.67 38.99 323.34 39.98 323 41 C321.0625 43.1875 321.0625 43.1875 319 45 C318.34 45 317.68 45 317 45 C316.79375 45.556875 316.5875 46.11375 316.375 46.6875 C314.48870368 49.85990745 311.84515195 51.67742698 309 54 C307.99426222 55.32901064 306.99204592 56.66073801 306 58 C305.34 58 304.68 58 304 58 C303.773125 58.556875 303.54625 59.11375 303.3125 59.6875 C301.63046689 62.65108214 299.43579582 64.61576688 297 67 C295.25561857 68.76604662 293.51216931 70.53301434 291.76953125 72.30078125 C290.29153843 73.79348699 288.81260636 75.28525502 287.33325195 76.77661133 C286.31228118 77.80774427 285.29309704 78.84064906 284.27563477 79.87524414 C282.79907634 81.37593475 281.31626141 82.87018285 279.83203125 84.36328125 C278.51295776 85.69806519 278.51295776 85.69806519 277.16723633 87.05981445 C275 89 275 89 273 89 C272.731875 89.639375 272.46375 90.27875 272.1875 90.9375 C271 93 271 93 268 94 C267.7215625 94.56203125 267.443125 95.1240625 267.15625 95.703125 C265.52664936 98.94030465 263.05339264 101.23619484 260.5 103.75 C260.00113281 104.25660156 259.50226563 104.76320313 258.98828125 105.28515625 C255.25341139 109 255.25341139 109 253 109 C252.74259033 109.58338135 252.48518066 110.1667627 252.2199707 110.76782227 C250.89466755 113.19272655 249.44772789 114.78039329 247.48046875 116.71484375 C246.78759766 117.40126953 246.09472656 118.08769531 245.38085938 118.79492188 C244.65705078 119.50197266 243.93324219 120.20902344 243.1875 120.9375 C242.47529297 121.64068359 241.76308594 122.34386719 241.02929688 123.06835938 C239.63647504 124.44314282 238.24181837 125.81607016 236.84521484 127.18701172 C234.5486903 129.44342761 232.27307253 131.71996553 230 134 C228.58350734 135.41684065 227.16681955 136.83348623 225.75 138.25 C224.9765625 139.0234375 224.203125 139.796875 223.40625 140.59375 C216.25 147.75 216.25 147.75 214.00146484 149.99633789 C212.40446987 151.59508609 210.81433926 153.20069024 209.2265625 154.80859375 C199.46640277 164.41464569 190.64293165 169.31432704 176.875 169.5 C170.19155899 169.43676712 164.69709256 168.75174388 159 165 C158.10504255 164.4425069 157.21008511 163.88501381 156.28800774 163.31062698 C152.61333016 160.85286281 149.58656007 157.88289082 146.47000122 154.76434326 C145.84009116 154.14178658 145.2101811 153.51922989 144.56118286 152.87780786 C142.46067571 150.79925299 140.3673005 148.71366584 138.27392578 146.62792969 C136.7660379 145.13257954 135.25777324 143.63760924 133.74916077 142.14299011 C128.80736515 137.24315301 123.87613645 132.33274874 118.9453125 127.421875 C117.2459059 125.73056599 115.5464313 124.03932531 113.8468895 122.34815216 C105.86795165 114.40727878 97.89381586 106.46162176 89.92555153 98.51003814 C80.72639284 89.33045576 71.51089349 80.16769376 62.28126347 71.01875186 C55.14614906 63.94388658 48.02638855 56.85380532 40.91802013 49.75206876 C36.67223373 45.51098873 32.42006114 41.27680859 28.15158463 37.0585556 C24.14000623 33.09342565 20.14776631 29.1098114 16.16966057 25.11110878 C14.70600421 23.64645895 13.23546959 22.18864607 11.75768852 20.73824883 C9.74215776 18.75799893 7.75279972 16.75466895 5.76809692 14.74359131 C5.17687455 14.17430743 4.58565218 13.60502355 3.97651398 13.01848865 C3.44725465 12.47206753 2.91799532 11.92564641 2.37269783 11.36266708 C1.91117258 10.90309545 1.44964733 10.44352382 0.97413647 9.97002578 C0 8 0 8 0 0 Z " fill="#A9D5E7" transform="translate(0,0)"/>
<path d="M0 0 C65.34 0 130.68 0 198 0 C198 65.34 198 130.68 198 198 C190.12495459 191.24996107 190.12495459 191.24996107 187.15574741 188.28158855 C186.47648152 187.60493041 185.79721563 186.92827226 185.09736592 186.23110932 C184.37458468 185.50609737 183.65180345 184.78108541 182.90711975 184.03410339 C182.12118028 183.24972391 181.3352408 182.46534443 180.52548498 181.65719587 C177.90531881 179.04100301 175.28872324 176.42126879 172.67211914 173.80151367 C170.78954394 171.92029407 168.90677515 170.03927004 167.02377319 168.15847778 C162.44988419 163.58902425 157.87868902 159.0168851 153.30846966 154.44376161 C149.59622929 150.72926012 145.8830107 147.01573916 142.16909599 143.30291176 C141.63995043 142.77391942 141.11080486 142.24492709 140.56562458 141.69990468 C139.49065055 140.62525038 138.41567428 139.55059833 137.34069579 138.47594849 C127.27440027 128.41250081 117.21116597 118.34599648 107.14898383 108.27843616 C98.50820628 99.63318342 89.86479933 90.99056678 81.21948242 82.34985352 C71.17791405 72.31362979 61.13796081 62.27579491 51.10060209 52.23536092 C50.03180138 51.16624165 48.96299857 50.09712448 47.89419365 49.02800941 C47.10537343 48.23895778 47.10537343 48.23895778 46.30061745 47.43396571 C42.58748958 43.71997294 38.87319958 40.00714484 35.15846443 36.29475975 C30.63868873 31.77778068 26.12068284 27.25904049 21.6049775 22.73799207 C19.2994078 20.42978469 16.99276289 18.12267015 14.68449593 15.81715965 C12.18868787 13.32405878 9.69593992 10.82793945 7.20399475 8.33097839 C6.46559846 7.59481283 5.72720218 6.85864726 4.96643025 6.10017365 C4.30541858 5.43655424 3.64440692 4.77293483 2.9633646 4.08920574 C2.38694645 3.51262523 1.81052829 2.93604473 1.21664292 2.34199208 C0 1 0 1 0 0 Z " fill="#ADD7E8" transform="translate(602,0)"/>
<path d="M0 0 C0.99 0.33 1.98 0.66 3 1 C3.3125 3.8125 3.3125 3.8125 3 7 C0.61107499 8.88599343 -0.91851558 10 -4 10 C-4.08636719 10.62003906 -4.17273438 11.24007813 -4.26171875 11.87890625 C-5 14 -5 14 -6.70703125 15.08984375 C-7.40183594 15.36957031 -8.09664063 15.64929687 -8.8125 15.9375 C-15.3060203 18.92915757 -17.49264496 23.60624464 -20 30 C-20.99 30 -21.98 30 -23 30 C-26.15035929 32.70030797 -28.52758009 34.74822077 -29 39 C-29.66 39 -30.32 39 -31 39 C-31 41.31 -31 43.62 -31 46 C-32.65 46.66 -34.3 47.32 -36 48 C-36.33 46.68 -36.66 45.36 -37 44 C-36.34 44 -35.68 44 -35 44 C-35 43.34 -35 42.68 -35 42 C-35.66 42 -36.32 42 -37 42 C-36.2204826 35.17922276 -31.86362704 31.81155346 -26.8671875 27.68359375 C-24.18633185 25.26633688 -21.94796124 22.53257279 -19.67578125 19.734375 C-18 18 -18 18 -15.85546875 16.953125 C-13.64112906 16.08899804 -13.64112906 16.08899804 -13 13 C-12.34 13 -11.68 13 -11 13 C-10.773125 12.4225 -10.54625 11.845 -10.3125 11.25 C-8.66800353 8.43086319 -6.5644533 6.98745131 -4 5 C-3.34 4.01 -2.68 3.02 -2 2 C-1.34 2 -0.68 2 0 2 C0 1.34 0 0.68 0 0 Z " fill="#A3CCDC" transform="translate(361,1136)"/>
<path d="M0 0 C0.68359375 1.765625 0.68359375 1.765625 1 4 C-0.21484375 5.921875 -0.21484375 5.921875 -1.9375 7.75 C-2.50339844 8.36359375 -3.06929688 8.9771875 -3.65234375 9.609375 C-4.31943359 10.29773437 -4.31943359 10.29773437 -5 11 C-6.32 10.67 -7.64 10.34 -9 10 C-9.0825 10.556875 -9.165 11.11375 -9.25 11.6875 C-10.25909627 14.79888018 -11.75592276 16.6312518 -14 19 C-14.886875 19.309375 -15.77375 19.61875 -16.6875 19.9375 C-17.450625 20.288125 -18.21375 20.63875 -19 21 C-19.75337759 23.93685156 -19.75337759 23.93685156 -20 27 C-22 30 -22 30 -25.25 30.75 C-29.91966063 32.30655354 -32.54379861 34.73538661 -35 39 C-35 40.32 -35 41.64 -35 43 C-34.34 43.33 -33.68 43.66 -33 44 C-34.32 44.66 -35.64 45.32 -37 46 C-37.99 45.34 -38.98 44.68 -40 44 C-43.19199167 46.41556126 -45.74716687 48.68003538 -48 52 C-48.495 50.515 -48.495 50.515 -49 49 C-47.71520959 47.49410612 -46.42195918 45.99542625 -45.125 44.5 C-44.04605469 43.24703125 -44.04605469 43.24703125 -42.9453125 41.96875 C-41.98238281 40.99421875 -41.98238281 40.99421875 -41 40 C-40.34 40 -39.68 40 -39 40 C-38.773125 39.4225 -38.54625 38.845 -38.3125 38.25 C-36.65599487 35.41027692 -34.57432012 34.04775464 -32 32 C-30.43873252 30.28260577 -28.95712356 28.51120141 -27.46875 26.73046875 C-24.61956598 23.37358438 -21.55322842 20.44498808 -18.125 17.6875 C-15.67502073 15.69376687 -13.66714375 13.53380138 -11.625 11.125 C-8.10041652 6.97750355 -4.17934726 3.47374318 0 0 Z " fill="#B3D3E0" transform="translate(413,1085)"/>
<path d="M0 0 C2.4375 0.75 2.4375 0.75 5 2 C5.8125 4.125 5.8125 4.125 6 6 C7.32 6 8.64 6 10 6 C10.103125 6.639375 10.20625 7.27875 10.3125 7.9375 C10.539375 8.618125 10.76625 9.29875 11 10 C11.99 10.33 12.98 10.66 14 11 C15.39712274 12.95597184 16.73779907 14.95436401 18 17 C18.66 16.67 19.32 16.34 20 16 C22.38971946 17.95522501 22.99970084 18.99887241 23.8125 22.0625 C24.204375 23.031875 24.59625 24.00125 25 25 C27.97503122 26.15835673 27.97503122 26.15835673 31 27 C32.0625 28.8125 32.0625 28.8125 33 31 C35.20203279 33.31495754 37.47486461 35.51108084 39.8125 37.6875 C41 39 41 39 41 41 C41.86625 41.0928125 41.86625 41.0928125 42.75 41.1875 C45.92448483 42.33384174 47.12848575 44.25956842 49 47 C49 47.66 49 48.32 49 49 C49.7425 49.20625 50.485 49.4125 51.25 49.625 C54.7895636 51.3947818 55.90044336 53.71069459 58 57 C58.99 57.33 59.98 57.66 61 58 C62.1875 60.5625 62.1875 60.5625 63 63 C58.91482394 61.37582304 56.16868302 58.45036838 53.12988281 55.38867188 C52.55383804 54.81613174 51.97779327 54.24359161 51.3842926 53.65370178 C49.4855142 51.7637119 47.59412809 49.86651702 45.703125 47.96875 C44.38634002 46.65331212 43.06925826 45.33817127 41.75189209 44.02331543 C38.99490316 41.26927355 36.24156091 38.51164986 33.49072266 35.75146484 C29.95758329 32.20690886 26.41551214 28.67143598 22.87068558 25.13857269 C20.15113133 22.4262292 17.43633859 19.70916037 14.72298431 16.99061584 C13.41825086 15.68454488 12.1120209 14.37996717 10.8042984 13.07688904 C8.98217305 11.25981842 7.16654158 9.43650292 5.35253906 7.61132812 C4.80712967 7.06996719 4.26172028 6.52860626 3.69978333 5.97084045 C0 2.22853132 0 2.22853132 0 0 Z " fill="#A7C8D7" transform="translate(626,23)"/>
<path d="M0 0 C0 5.22772251 -3.55090139 9.25526436 -7 13 C-8.97522846 14.04808041 -10.97481509 15.0520411 -13 16 C-14.81554159 17.56102491 -14.81554159 17.56102491 -16 19 C-16.66 18.67 -17.32 18.34 -18 18 C-14.65348519 13.7122779 -11.07466717 10.20568225 -6.9375 6.6796875 C-4.49654333 4.56353555 -2.24804455 2.31829594 0 0 Z M-19 19 C-19 22.10551666 -19.5393715 23.35261084 -21 26 C-21.66 26 -22.32 26 -23 26 C-23 26.66 -23 27.32 -23 28 C-23.66 28 -24.32 28 -25 28 C-25 28.66 -25 29.32 -25 30 C-25.8971875 30.3403125 -25.8971875 30.3403125 -26.8125 30.6875 C-29.16720485 31.86524841 -29.16720485 31.86524841 -30.375 34.3125 C-32.37944213 37.6275389 -34.99683511 39.65030154 -38 42 C-39.25766635 43.01137335 -40.50764289 44.03237889 -41.75 45.0625 C-42.32234375 45.52785156 -42.8946875 45.99320313 -43.484375 46.47265625 C-45.17276882 48.17410466 -45.95665171 49.86002605 -47 52 C-48.9375 53.0625 -48.9375 53.0625 -51 54 C-52.70921589 55.5412312 -52.70921589 55.5412312 -54 57 C-54 54 -54 54 -52.33520508 51.99462891 C-51.57103271 51.24616699 -50.80686035 50.49770508 -50.01953125 49.7265625 C-49.18486328 48.9015625 -48.35019531 48.0765625 -47.49023438 47.2265625 C-46.60658203 46.36804688 -45.72292969 45.50953125 -44.8125 44.625 C-43.94818359 43.77421875 -43.08386719 42.9234375 -42.19335938 42.046875 C-40.52217203 40.40258032 -38.84819275 38.76111737 -37.17114258 37.12280273 C-34.76180734 34.76711062 -32.3764564 32.38883377 -30 30 C-29.03540761 29.03490496 -28.07054982 28.07007512 -27.10546875 27.10546875 C-26.38520508 26.38520508 -26.38520508 26.38520508 -25.65039062 25.65039062 C-23.43359375 23.43359375 -21.21679688 21.21679688 -19 19 Z " fill="#EDFAFC" transform="translate(266,97)"/>
<path d="M0 0 C0.66 0.33 1.32 0.66 2 1 C-0.77593915 3.98156427 -3.47281182 5.9844639 -7 8 C-9.04049422 9.2704964 -11.05017465 10.59431196 -13 12 C-13 12.66 -13 13.32 -13 14 C-13.66 14 -14.32 14 -15 14 C-15.33 14.99 -15.66 15.98 -16 17 C-17.41367452 17.87513185 -18.82799521 18.74924285 -20.24609375 19.6171875 C-23.224562 21.96546759 -25.22198214 25.08650328 -27.38671875 28.171875 C-27.91910156 28.77515625 -28.45148438 29.3784375 -29 30 C-29.99 30 -30.98 30 -32 30 C-32 30.66 -32 31.32 -32 32 C-33.28515625 33.2265625 -33.28515625 33.2265625 -35.0625 34.625 C-40.09841891 38.79089227 -44.37544435 43.56316652 -48 49 C-50.625 49.6875 -50.625 49.6875 -53 50 C-49.53629952 43.61949912 -44.34293502 39.35893164 -38.8671875 34.74609375 C-36.91740995 33.03191411 -36.91740995 33.03191411 -35.3828125 30.78515625 C-34.92648437 30.19605469 -34.47015625 29.60695313 -34 29 C-33.34 29 -32.68 29 -32 29 C-32 28.34 -32 27.68 -32 27 C-28.61168704 23.31271825 -24.84034635 20.20028862 -21 17 C-20.2265625 16.21882813 -19.453125 15.43765625 -18.65625 14.6328125 C-16.0442808 12.04389008 -13.3464678 9.70174756 -10.5 7.375 C-9.5821875 6.61960937 -8.664375 5.86421875 -7.71875 5.0859375 C-5.21163376 3.16237418 -2.81532688 1.43658803 0 0 Z " fill="#B9D4DF" transform="translate(467,1035)"/>
<path d="M0 0 C2 1 2 1 3 3 C1.625 4.5 1.625 4.5 0 6 C-0.66 6 -1.32 6 -2 6 C-2 6.66 -2 7.32 -2 8 C-2.66 8 -3.32 8 -4 8 C-4.33 8.99 -4.66 9.98 -5 11 C-5.66 11.66 -6.32 12.32 -7 13 C-7.33 13.66 -7.66 14.32 -8 15 C-10 16 -10 16 -12 17 C-13.70921589 18.5412312 -13.70921589 18.5412312 -15 20 C-14.34 20.66 -13.68 21.32 -13 22 C-16.21451269 23.60725635 -19.43612536 23.05748185 -23 23 C-19.59304394 18.83204001 -16.224305 15.3577809 -12 12 C-10.79238273 10.53814751 -9.58547046 9.07549335 -8.40234375 7.59375 C-5.89377687 4.74278819 -2.94088287 2.38999703 0 0 Z " fill="#A0C8D8" transform="translate(321,1177)"/>
<path d="M0 0 C0 4.19671383 -2.20840094 6.12349358 -5 9 C-6.08881474 9.95333692 -7.19039652 10.89218828 -8.30078125 11.8203125 C-14.92946985 17.56830865 -21.0084358 23.9037606 -27.1875 30.125 C-28.45744687 31.39997412 -29.72762749 32.67471546 -30.99804688 33.94921875 C-33.3298159 36.2890934 -35.66023194 38.63029685 -37.98901367 40.97314453 C-38.49975433 41.48427795 -39.010495 41.99541138 -39.53671265 42.52203369 C-40.92326713 43.92249738 -42.28531157 45.34710426 -43.64575195 46.77294922 C-45.77473521 48.78690601 -47.39145327 49.78811029 -50 51 C-44.93499762 44.8758184 -39.4217079 39.29284139 -33.7890625 33.69140625 C-32.81092733 32.71514014 -31.83301565 31.73865006 -30.85531616 30.76194763 C-28.30285601 28.21327423 -25.74740552 25.66762042 -23.19128418 23.12261963 C-20.57490086 20.51653382 -17.96140697 17.90755379 -15.34765625 15.29882812 C-10.23456754 10.19640882 -5.11831088 5.09718143 0 0 Z " fill="#E9F7FD" transform="translate(334,1114)"/>
<path d="M0 0 C0.99 0 1.98 0 3 0 C3.33 1.32 3.66 2.64 4 4 C4.66 4 5.32 4 6 4 C6 4.66 6 5.32 6 6 C6.99 6 7.98 6 9 6 C9 6.66 9 7.32 9 8 C9.598125 8.2475 10.19625 8.495 10.8125 8.75 C13.31626919 10.18072525 14.48072388 11.5691582 16 14 C16 14.66 16 15.32 16 16 C16.928125 16.0928125 16.928125 16.0928125 17.875 16.1875 C20 17 20 17 21.25 19.5625 C21.4975 20.366875 21.745 21.17125 22 22 C22.99 22 23.98 22 25 22 C27 25 27 25 28 28 C24.02009412 26.39577001 21.32807684 23.61753303 18.359375 20.625 C17.56880707 19.83730225 17.56880707 19.83730225 16.76226807 19.03369141 C15.65383072 17.92661117 14.54789954 16.8170167 13.44433594 15.70507812 C11.74893699 13.99893025 10.0430839 12.30375953 8.3359375 10.609375 C7.25977442 9.53189108 6.18423149 8.45378733 5.109375 7.375 C4.59695251 6.86662598 4.08453003 6.35825195 3.55657959 5.83447266 C0 2.22994091 0 2.22994091 0 0 Z " fill="#B4D1DA" transform="translate(763,160)"/>
<path d="M0 0 C2.64 0 5.28 0 8 0 C7.67 1.98 7.34 3.96 7 6 C7.969375 6.2475 8.93875 6.495 9.9375 6.75 C10.948125 7.1625 11.95875 7.575 13 8 C13.625 10 13.625 10 14 12 C15.9837767 13.28436734 15.9837767 13.28436734 18 14 C18 14.66 18 15.32 18 16 C19.32 16.33 20.64 16.66 22 17 C21.34 17.33 20.68 17.66 20 18 C20.99 18.33 21.98 18.66 23 19 C23.33 19.99 23.66 20.98 24 22 C19.93016963 21.46762976 18.06035198 19.42080571 15.234375 16.5625 C13.90019531 15.22058594 13.90019531 15.22058594 12.5390625 13.8515625 C11.61867188 12.91054687 10.69828125 11.96953125 9.75 11 C8.8053227 10.04884787 7.86001679 9.09831963 6.9140625 8.1484375 C0 1.15374453 0 1.15374453 0 0 Z " fill="#A3C8D9" transform="translate(602,0)"/>
<path d="M0 0 C0.66 0 1.32 0 2 0 C3.12793522 9.92582998 -2.60622993 19.04374115 -8 27 C-8.928125 28.546875 -8.928125 28.546875 -9.875 30.125 C-12.49901456 33.67513735 -15.55523851 36.27128444 -19 39 C-18.690625 38.401875 -18.38125 37.80375 -18.0625 37.1875 C-16.89790296 34.91043228 -16.89790296 34.91043228 -16 32 C-15.360625 31.7525 -14.72125 31.505 -14.0625 31.25 C-10.87209296 29.31641998 -10.88603999 26.48087138 -10 23 C-9.34 22.67 -8.68 22.34 -8 22 C-3.97813185 15.77259126 0 7.6060842 0 0 Z " fill="#CDE3EB" transform="translate(467,961)"/>
<path d="M0 0 C0.99 0.66 1.98 1.32 3 2 C2.34 2 1.68 2 1 2 C0.61714844 2.86963379 0.61714844 2.86963379 0.2265625 3.75683594 C-1.12584777 6.23015312 -2.63732524 7.89602109 -4.625 9.890625 C-5.33140625 10.59960938 -6.0378125 11.30859375 -6.765625 12.0390625 C-7.50296875 12.76867187 -8.2403125 13.49828125 -9 14.25 C-9.73734375 14.99507812 -10.4746875 15.74015625 -11.234375 16.5078125 C-11.94078125 17.21164063 -12.6471875 17.91546875 -13.375 18.640625 C-14.02210938 19.28547852 -14.66921875 19.93033203 -15.3359375 20.59472656 C-17 22 -17 22 -19 22 C-18.375 19.125 -18.375 19.125 -17 16 C-16.01 15.690625 -15.02 15.38125 -14 15.0625 C-13.01 14.711875 -12.02 14.36125 -11 14 C-10.505 12.2675 -10.505 12.2675 -10 10.5 C-9.505 8.7675 -9.505 8.7675 -9 7 C-5.875 5.5625 -5.875 5.5625 -3 5 C-3 4.34 -3 3.68 -3 3 C-2.34 3 -1.68 3 -1 3 C-0.67 2.01 -0.34 1.02 0 0 Z " fill="#B9D8E0" transform="translate(252,107)"/>
<path d="M0 0 C4.875 3.625 4.875 3.625 6 7 C7.2375 7.7115625 7.2375 7.7115625 8.5 8.4375 C11 10 11 10 11.8125 12.1875 C11.874375 12.785625 11.93625 13.38375 12 14 C12.5775 14.061875 13.155 14.12375 13.75 14.1875 C16.92448483 15.33384174 18.12848575 17.25956842 20 20 C20 20.66 20 21.32 20 22 C16.63664406 20.54254576 14.45465995 18.68882146 11.890625 16.0859375 C11.13652344 15.32539063 10.38242187 14.56484375 9.60546875 13.78125 C8.82816406 12.9871875 8.05085937 12.193125 7.25 11.375 C6.06083984 10.17230469 6.06083984 10.17230469 4.84765625 8.9453125 C2.89385507 6.96797154 0.94487897 4.98611091 -1 3 C-0.67 2.01 -0.34 1.02 0 0 Z " fill="#B1D1DA" transform="translate(741,136)"/>
<path d="M0 0 C0.99 0.66 1.98 1.32 3 2 C-3.27 8.27 -9.54 14.54 -16 21 C-16.33 20.01 -16.66 19.02 -17 18 C-16.01 16.515 -16.01 16.515 -15 15 C-14.01 15 -13.02 15 -12 15 C-12 14.01 -12 13.02 -12 12 C-11.34 12 -10.68 12 -10 12 C-10 11.01 -10 10.02 -10 9 C-9.40703125 8.74476562 -8.8140625 8.48953125 -8.203125 8.2265625 C-5.78775462 6.88183502 -4.48788294 5.50785633 -2.75 3.375 C-2.22921875 2.74335937 -1.7084375 2.11171875 -1.171875 1.4609375 C-0.78515625 0.97882813 -0.3984375 0.49671875 0 0 Z " fill="#C0DDE5" transform="translate(292,67)"/>
<path d="M0 0 C-7.26 7.26 -14.52 14.52 -22 22 C-22.33 21.01 -22.66 20.02 -23 19 C-22.34 19 -21.68 19 -21 19 C-20.67 18.01 -20.34 17.02 -20 16 C-19.01 15.34 -18.02 14.68 -17 14 C-16.85433594 13.34902344 -16.70867187 12.69804688 -16.55859375 12.02734375 C-16 10 -16 10 -14.22265625 8.69140625 C-13.50980469 8.31886719 -12.79695313 7.94632813 -12.0625 7.5625 C-8.3953659 5.45862022 -7.35206806 4.05620418 -6 0 C-3.40713222 -1.13437965 -2.55267344 -1.27633672 0 0 Z " fill="#C2DBE4" transform="translate(384,1065)"/>
<path d="M0 0 C0.99 0.33 1.98 0.66 3 1 C-4.59 8.59 -12.18 16.18 -20 24 C-20.33 23.01 -20.66 22.02 -21 21 C-20.07767578 20.22076172 -20.07767578 20.22076172 -19.13671875 19.42578125 C-17.92435547 18.37970703 -17.92435547 18.37970703 -16.6875 17.3125 C-15.88699219 16.62800781 -15.08648437 15.94351562 -14.26171875 15.23828125 C-11.89768898 13.08717145 -11.89768898 13.08717145 -10.39453125 10.29296875 C-9 8 -9 8 -6 7 C-5.34 6.01 -4.68 5.02 -4 4 C-3.34 4 -2.68 4 -2 4 C-1.34 2.68 -0.68 1.36 0 0 Z " fill="#C5DEE7" transform="translate(421,1024)"/>
<path d="M0 0 C2.64 0 5.28 0 8 0 C6.02 0.99 6.02 0.99 4 2 C7.96 2.33 11.92 2.66 16 3 C16 3.33 16 3.66 16 4 C20.29 4 24.58 4 29 4 C25.13686219 6.57542521 21.8600432 6.38225295 17.375 6.375 C16.56627441 6.37628906 15.75754883 6.37757813 14.92431641 6.37890625 C8.75055137 6.26948202 4.37280065 5.18388187 -1 2 C-0.67 1.34 -0.34 0.68 0 0 Z " fill="#A7CAD9" transform="translate(160,163)"/>
<path d="M0 0 C0.66 1.32 1.32 2.64 2 4 C-3.61 9.61 -9.22 15.22 -15 21 C-15.33 20.01 -15.66 19.02 -16 18 C-15.38125 17.773125 -14.7625 17.54625 -14.125 17.3125 C-11.35871763 15.60391383 -11.09758944 14.00007779 -10 11 C-8.5 9.1875 -8.5 9.1875 -7 8 C-6.34 8 -5.68 8 -5 8 C-4.34 6.68 -3.68 5.36 -3 4 C-2.34 4 -1.68 4 -1 4 C-1.33 3.01 -1.66 2.02 -2 1 C-1.34 0.67 -0.68 0.34 0 0 Z " fill="#B7D5E1" transform="translate(230,128)"/>
<path d="M0 0 C0.66 0.33 1.32 0.66 2 1 C-4.27 7.27 -10.54 13.54 -17 20 C-17 14.94433229 -12.68368023 11.73251453 -9.375 8.1875 C-7 6 -7 6 -4 5 C-4 4.01 -4 3.02 -4 2 C-2.125 0.9375 -2.125 0.9375 0 0 Z " fill="#B7D2DE" transform="translate(284,1162)"/>
<path d="M0 0 C1.32 0 2.64 0 4 0 C3.1875 1.9375 3.1875 1.9375 2 4 C1.01 4.33 0.02 4.66 -1 5 C-1.268125 5.5775 -1.53625 6.155 -1.8125 6.75 C-3.55133944 10.04464314 -6.07645336 11.71200698 -9 14 C-9.33 12.02 -9.66 10.04 -10 8 C-7.92446352 7.4465236 -6.15634036 7 -4 7 C-3.71125 6.401875 -3.4225 5.80375 -3.125 5.1875 C-2 3 -2 3 0 0 Z " fill="#BBDAE3" transform="translate(269,89)"/>
<path d="M0 0 C4.75757576 2.37878788 4.75757576 2.37878788 6 5.5625 C6.77676536 8.2257637 6.77676536 8.2257637 9.4375 9.1875 C10.283125 9.455625 11.12875 9.72375 12 10 C12.99 10.66 13.98 11.32 15 12 C15 13.32 15 14.64 15 16 C10.99060757 14.38669686 8.24326219 11.57540302 5.25 8.5625 C4.74339844 8.07201172 4.23679687 7.58152344 3.71484375 7.07617188 C2.4140692 5.77715039 1.20011632 4.39254877 0 3 C0 2.01 0 1.02 0 0 Z " fill="#ACCBDB" transform="translate(698,94)"/>
<path d="M0 0 C0.99 0 1.98 0 3 0 C1.36223827 4.91328518 -2.72376629 8.19832964 -7 11 C-7.66 11 -8.32 11 -9 11 C-9.33 12.32 -9.66 13.64 -10 15 C-10.66 15 -11.32 15 -12 15 C-12 15.99 -12 16.98 -12 18 C-13.32 18 -14.64 18 -16 18 C-16 16 -16 16 -13.9375 13.75 C-11.84927964 11.73296897 -9.66418123 9.8619662 -7.4375 8 C-5.18108346 6.11067943 -3.59177256 4.47837605 -1.75 2.125 C-1.1725 1.42375 -0.595 0.7225 0 0 Z " fill="#EBF8FC" transform="translate(320,42)"/>
<path d="M0 0 C0.8125 1.6875 0.8125 1.6875 1 4 C-1.1875 6.5 -1.1875 6.5 -4 9 C-4.680625 9.70125 -5.36125 10.4025 -6.0625 11.125 C-8 13 -8 13 -10.125 14.5 C-12.19643807 16.15715045 -12.99550126 17.57246138 -14 20 C-14.99 19.34 -15.98 18.68 -17 18 C-16.5560791 17.56131592 -16.1121582 17.12263184 -15.65478516 16.6706543 C-13.64222971 14.67890386 -11.6335838 12.68325526 -9.625 10.6875 C-8.92632812 9.99720703 -8.22765625 9.30691406 -7.5078125 8.59570312 C-6.8375 7.92861328 -6.1671875 7.26152344 -5.4765625 6.57421875 C-4.85861816 5.96151123 -4.24067383 5.34880371 -3.60400391 4.7175293 C-1.80710653 2.88670835 -1.80710653 2.88670835 0 0 Z " fill="#EEFAFD" transform="translate(298,64)"/>
<path d="M0 0 C4.52615993 3.67832017 8.39424999 7.41086363 12 12 C10.33157466 11.67558396 8.66519519 11.34060811 7 11 C6.29875 10.95875 5.5975 10.9175 4.875 10.875 C3 10 3 10 1.25 6.625 C0 3 0 3 0 0 Z " fill="#C5E0E8" transform="translate(168,620)"/>
<path d="M0 0 C-3.36781647 2.24521098 -5.93739968 2.70831461 -9.84375 3.4375 C-12.27244046 3.94566991 -12.27244046 3.94566991 -15 6 C-17.48046875 6.1953125 -17.48046875 6.1953125 -20.1875 6.125 C-21.08855469 6.10695313 -21.98960937 6.08890625 -22.91796875 6.0703125 C-23.60503906 6.04710937 -24.29210937 6.02390625 -25 6 C-21.87249759 3.91499839 -19.2713673 3.02464775 -15.6875 1.9375 C-14.57761719 1.59589844 -13.46773438 1.25429688 -12.32421875 0.90234375 C-4.03950777 -1.34650259 -4.03950777 -1.34650259 0 0 Z " fill="#C4DDE7" transform="translate(507,1022)"/>
<path d="M0 0 C3.35620271 1.38877354 5.07298728 2.91677965 7 6 C7 6.66 7 7.32 7 8 C7.9590625 8.1546875 7.9590625 8.1546875 8.9375 8.3125 C9.9584375 8.6528125 9.9584375 8.6528125 11 9 C11.33 9.99 11.66 10.98 12 12 C12.66 12 13.32 12 14 12 C14 12.66 14 13.32 14 14 C9.74689068 13.50314143 7.67968742 11.08038643 4.75 8.125 C3.85796875 7.24070312 2.9659375 6.35640625 2.046875 5.4453125 C0 3 0 3 0 0 Z " fill="#AECEDB" transform="translate(724,120)"/>
<path d="M0 0 C0.99 0 1.98 0 3 0 C2.34 1.32 1.68 2.64 1 4 C0.34 4 -0.32 4 -1 4 C-1.20625 4.556875 -1.4125 5.11375 -1.625 5.6875 C-3.55000774 8.92501302 -6.03850902 10.68231141 -9 13 C-8.875 9.75 -8.875 9.75 -8 6 C-3.17948718 2 -3.17948718 2 0 2 C0 1.34 0 0.68 0 0 Z " fill="#C2DFE5" transform="translate(305,54)"/>
<path d="M0 0 C1.32 0.33 2.64 0.66 4 1 C3.01 1.495 3.01 1.495 2 2 C1.7525 2.5775 1.505 3.155 1.25 3.75 C-0.55906281 7.00631306 -3.07434092 8.71035376 -6 11 C-6.66 10.34 -7.32 9.68 -8 9 C-7.1875 7.0625 -7.1875 7.0625 -6 5 C-5.01 4.67 -4.02 4.34 -3 4 C-2.67 3.34 -2.34 2.68 -2 2 C-1.34 2 -0.68 2 0 2 C0 1.34 0 0.68 0 0 Z " fill="#C4E0E9" transform="translate(315,43)"/>
<path d="M0 0 C2.475 0.495 2.475 0.495 5 1 C5 1.66 5 2.32 5 3 C5.66 3.33 6.32 3.66 7 4 C8 5 9 6 10 7 C10.86625 7.61875 11.7325 8.2375 12.625 8.875 C15.30709286 11.27476729 15.70704343 12.48452117 16 16 C10.35573231 11.31645873 4.9941954 6.3792354 0 1 C0 0.67 0 0.34 0 0 Z " fill="#9DC3D2" transform="translate(17,24)"/>
<path d="M0 0 C0.66 0.33 1.32 0.66 2 1 C-2.95 5.95 -7.9 10.9 -13 16 C-13.33 15.34 -13.66 14.68 -14 14 C-9.76937956 8.8023806 -5.52045063 3.88476156 0 0 Z " fill="#C9E0E9" transform="translate(446,1000)"/>
<path d="M0 0 C2.35043586 1.98070437 4.67822804 3.98581322 7 6 C7.825 6.70125 8.65 7.4025 9.5 8.125 C9.995 8.74375 10.49 9.3625 11 10 C10.75 12.25 10.75 12.25 10 14 C10 13.01 10 12.02 10 11 C7.69 10.34 5.38 9.68 3 9 C2.814375 8.071875 2.814375 8.071875 2.625 7.125 C2.12802644 4.80879168 2.12802644 4.80879168 0 3 C0 2.01 0 1.02 0 0 Z " fill="#C1DDE7" transform="translate(9,461)"/>
<path d="M0 0 C4.52615993 3.67832017 8.39424999 7.41086363 12 12 C10.68 11.67 9.36 11.34 8 11 C8 10.34 8 9.68 8 9 C7.360625 8.87625 6.72125 8.7525 6.0625 8.625 C5.381875 8.41875 4.70125 8.2125 4 8 C3.67 7.34 3.34 6.68 3 6 C2.01 5.67 1.02 5.34 0 5 C0 3.35 0 1.7 0 0 Z " fill="#E5F6FB" transform="translate(0,8)"/>
<path d="M0 0 C-8.261959 6.70387244 -8.261959 6.70387244 -13 7 C-10.375 2.125 -10.375 2.125 -7 1 C-6.34 0.62875 -5.68 0.2575 -5 -0.125 C-3 -1 -3 -1 0 0 Z " fill="#AACFDC" transform="translate(203,160)"/>
<path d="M0 0 C0.33 0 0.66 0 1 0 C1.19647038 2.68711024 1.38239615 5.37428331 1.5625 8.0625 C1.61857422 8.81466797 1.67464844 9.56683594 1.73242188 10.34179688 C2.04000617 15.07859502 1.83807173 19.32542212 1 24 C-0.82976016 20.89003222 -1.20629302 18.81817118 -0.9765625 15.234375 C-0.925 14.34492187 -0.8734375 13.45546875 -0.8203125 12.5390625 C-0.75585938 11.61867188 -0.69140625 10.69828125 -0.625 9.75 C-0.56828125 8.81414063 -0.5115625 7.87828125 -0.453125 6.9140625 C-0.31197212 4.60856552 -0.1605965 2.30421072 0 0 Z " fill="#E7F5F9" transform="translate(470,944)"/>
<path d="M0 0 C1.12894876 0.93274109 2.25300876 1.87140122 3.375 2.8125 C4.00148437 3.33457031 4.62796875 3.85664062 5.2734375 4.39453125 C7 6 7 6 9 9 C8.01 9.33 7.02 9.66 6 10 C5.34 9.67 4.68 9.34 4 9 C4 8.01 4 7.02 4 6 C2.02 5.34 0.04 4.68 -2 4 C-1.34 2.68 -0.68 1.36 0 0 Z " fill="#C8E2EA" transform="translate(243,695)"/>
<path d="M0 0 C0.66 0 1.32 0 2 0 C3.5078125 1.75 3.5078125 1.75 5.125 4 C5.66382813 4.7425 6.20265625 5.485 6.7578125 6.25 C7.16773438 6.8275 7.57765625 7.405 8 8 C2.25 8.125 2.25 8.125 0 7 C0 4.69 0 2.38 0 0 Z " fill="#C9E1EA" transform="translate(216,668)"/>
<path d="M0 0 C1.12894876 0.93274109 2.25300876 1.87140122 3.375 2.8125 C4.00148438 3.33457031 4.62796875 3.85664062 5.2734375 4.39453125 C7 6 7 6 9 9 C6.36 8.67 3.72 8.34 1 8 C0.40267181 5.23735711 0 2.83967231 0 0 Z " fill="#C3DFEB" transform="translate(112,564)"/>
<path d="M0 0 C3.21043882 1.38188453 5.04936365 2.92421903 7.25 5.625 C8.03117187 6.57246094 8.03117187 6.57246094 8.828125 7.5390625 C9.40820312 8.26222656 9.40820312 8.26222656 10 9 C9.67 9.66 9.34 10.32 9 11 C8.34 11 7.68 11 7 11 C6 9 5 7 4 5 C3.34 5 2.68 5 2 5 C2 4.34 2 3.68 2 3 C1.34 3 0.68 3 0 3 C0 2.01 0 1.02 0 0 Z " fill="#C2DDE6" transform="translate(21,474)"/>
<path d="M0 0 C0.33 0.66 0.66 1.32 1 2 C-1.66666667 4.66666667 -4.33333333 7.33333333 -7 10 C-7.66 9.67 -8.32 9.34 -9 9 C-8.67 7.35 -8.34 5.7 -8 4 C-7.4225 3.896875 -6.845 3.79375 -6.25 3.6875 C-3.67950842 2.90207202 -2.06342716 1.69495803 0 0 Z " fill="#D0E4EB" transform="translate(355,6)"/>
<path d="M0 0 C0.33 0.66 0.66 1.32 1 2 C2.65 1.34 4.3 0.68 6 0 C2 6.57142857 2 6.57142857 -2 8 C-2 8.66 -2 9.32 -2 10 C-2.66 9.67 -3.32 9.34 -4 9 C-3.67 8.34 -3.34 7.68 -3 7 C-2.34 7 -1.68 7 -1 7 C-1.020625 6.030625 -1.04125 5.06125 -1.0625 4.0625 C-1 1 -1 1 0 0 Z " fill="#CBE0EA" transform="translate(332,24)"/>
<path d="M0 0 C0.66 0.33 1.32 0.66 2 1 C1.67 2.98 1.34 4.96 1 7 C1.66 7.33 2.32 7.66 3 8 C1.125 9.0625 1.125 9.0625 -1 10 C-1.66 9.67 -2.32 9.34 -3 9 C-2.30058404 5.85262818 -1.23921302 2.97411124 0 0 Z " fill="#A5D2E5" transform="translate(377,1121)"/>
<path d="M0 0 C5.67853635 1.41963409 9.53174216 4.39363961 14 8 C13.01 8.33 12.02 8.66 11 9 C9 7.625 9 7.625 7 6 C6.01 5.67 5.02 5.34 4 5 C2.61423077 3.37667033 1.27358732 1.71275535 0 0 Z " fill="#C9DDE6" transform="translate(577,1035)"/>
<path d="M0 0 C3.21524305 1.40844718 5.32183868 3.10344786 7.75 5.625 C8.67039062 6.57246094 8.67039062 6.57246094 9.609375 7.5390625 C10.29773438 8.26222656 10.29773438 8.26222656 11 9 C10.01 9.33 9.02 9.66 8 10 C8 9.34 8 8.68 8 8 C7.01 8 6.02 8 5 8 C0 2.65116279 0 2.65116279 0 0 Z " fill="#ECFBFD" transform="translate(752,152)"/>
<path d="M0 0 C1.12894876 0.93274109 2.25300876 1.87140122 3.375 2.8125 C4.00148438 3.33457031 4.62796875 3.85664062 5.2734375 4.39453125 C7 6 7 6 9 9 C8.236875 8.690625 7.47375 8.38125 6.6875 8.0625 C4.81210323 7.32106407 2.91315348 6.63771783 1 6 C-0.1875 3.4375 -0.1875 3.4375 -1 1 C-0.67 0.67 -0.34 0.34 0 0 Z " fill="#EDFAFD" transform="translate(721,120)"/>
<path d="M0 0 C0.66 0.66 1.32 1.32 2 2 C-0.97 4.97 -3.94 7.94 -7 11 C-7.33 10.01 -7.66 9.02 -8 8 C-5.33333333 5.33333333 -2.66666667 2.66666667 0 0 Z " fill="#B2D2DC" transform="translate(257,1188)"/>
<path d="M0 0 C0.66 0.33 1.32 0.66 2 1 C-0.97 3.97 -3.94 6.94 -7 10 C-8 8 -8 8 -8 6.125 C-6.33067812 2.57769099 -3.48622382 1.65136918 0 0 Z " fill="#BED7E2" transform="translate(343,1103)"/>
<path d="M0 0 C1.79244141 0.01740234 1.79244141 0.01740234 3.62109375 0.03515625 C5.41740234 0.04869141 5.41740234 0.04869141 7.25 0.0625 C8.17683594 0.07410156 9.10367188 0.08570313 10.05859375 0.09765625 C10.05859375 0.75765625 10.05859375 1.41765625 10.05859375 2.09765625 C8.47730346 2.32096824 6.89338286 2.52570269 5.30859375 2.72265625 C3.98601563 2.89667969 3.98601563 2.89667969 2.63671875 3.07421875 C-0.17000503 3.09973442 -1.57525491 2.54609469 -3.94140625 1.09765625 C-2.94140625 0.09765625 -2.94140625 0.09765625 0 0 Z " fill="#C2DCE5" transform="translate(519.94140625,1019.90234375)"/>
<path d="M0 0 C0.66 0 1.32 0 2 0 C2.66 0.66 3.32 1.32 4 2 C4.66 2.33 5.32 2.66 6 3 C6.33333333 4.33333333 6.66666667 5.66666667 7 7 C7.66 7.33 8.32 7.66 9 8 C9 8.66 9 9.32 9 10 C5.17647894 8.4422692 2.70794407 6.08404742 0 3 C0 2.01 0 1.02 0 0 Z " fill="#ABCDD9" transform="translate(714,110)"/>
<path d="M0 0 C1.32 0.66 2.64 1.32 4 2 C-1.75 7 -1.75 7 -4 7 C-4 4 -4 4 -2 1.8125 C-1.34 1.214375 -0.68 0.61625 0 0 Z " fill="#E3F5F9" transform="translate(325,1168)"/>
<path d="M0 0 C0.66 1.32 1.32 2.64 2 4 C2.66 4 3.32 4 4 4 C5.38232443 5.62626404 6.71937515 7.2925002 8 9 C7.67 9.66 7.34 10.32 7 11 C5.49410612 9.71520959 3.99542625 8.42195918 2.5 7.125 C1.6646875 6.40570312 0.829375 5.68640625 -0.03125 4.9453125 C-0.6809375 4.30335938 -1.330625 3.66140625 -2 3 C-2 2.34 -2 1.68 -2 1 C-1.34 0.67 -0.68 0.34 0 0 Z " fill="#ECF8FC" transform="translate(195,643)"/>
<path d="M0 0 C3.36241563 0.45438049 6.04009971 1.35561095 9 3 C9 3.66 9 4.32 9 5 C2.47692308 4.38461538 2.47692308 4.38461538 0.0625 2.4375 C-0.288125 1.963125 -0.63875 1.48875 -1 1 C-0.67 0.67 -0.34 0.34 0 0 Z " fill="#C5DEE9" transform="translate(561,1027)"/>
<path d="M0 0 C0.66 0.33 1.32 0.66 2 1 C-1.44615385 5.8 -1.44615385 5.8 -4.25 6.8125 C-5.11625 6.9053125 -5.11625 6.9053125 -6 7 C-5.8125 5.1875 -5.8125 5.1875 -5 3 C-2.5625 1.1875 -2.5625 1.1875 0 0 Z " fill="#EAF8FD" transform="translate(343,1152)"/>
<path d="M0 0 C0.66 0 1.32 0 2 0 C2 0.66 2 1.32 2 2 C3.32 2 4.64 2 6 2 C8 4 8 4 8.125 6.625 C8.08375 7.40875 8.0425 8.1925 8 9 C6.84775972 8.07038578 5.70340824 7.1309875 4.5625 6.1875 C3.60537109 5.40439453 3.60537109 5.40439453 2.62890625 4.60546875 C1 3 1 3 0 0 Z " fill="#E7F2F7" transform="translate(451,903)"/>
<path d="M0 0 C4.22797927 3.08290155 4.22797927 3.08290155 6 5 C6.375 7.8125 6.375 7.8125 6 10 C4 9 4 9 3 6 C1.70644173 4.62804426 0.37701298 3.28817344 -1 2 C-0.67 1.34 -0.34 0.68 0 0 Z " fill="#C1DCE9" transform="translate(32,484)"/>
<path d="M0 0 C5.75 1.875 5.75 1.875 8 3 C8 4.65 8 6.3 8 8 C6.85073734 7.04578192 5.70569459 6.08647955 4.5625 5.125 C3.92441406 4.59132813 3.28632813 4.05765625 2.62890625 3.5078125 C1 2 1 2 0 0 Z " fill="#9DC4D3" transform="translate(8,15)"/>
<path d="M0 0 C0.99 0.33 1.98 0.66 3 1 C2.67 1.66 2.34 2.32 2 3 C4.64 3 7.28 3 10 3 C7.08291076 4.98362069 5.87619096 4.9876191 2.25 4.625 C1.1775 4.41875 0.105 4.2125 -1 4 C-1 1 -1 1 0 0 Z " fill="#A6D4E8" transform="translate(385,1115)"/>
<path d="M0 0 C1.14926266 0.95421808 2.29430541 1.91352045 3.4375 2.875 C4.07558594 3.40867187 4.71367188 3.94234375 5.37109375 4.4921875 C7 6 7 6 8 8 C5.61435923 7.42415568 3.33317216 6.77772405 1 6 C0.67 4.02 0.34 2.04 0 0 Z " fill="#C5DDE6" transform="translate(104,556)"/>
<path d="M0 0 C2.3125 0.1875 2.3125 0.1875 5 1 C6.875 3.4375 6.875 3.4375 8 6 C7.67 6.66 7.34 7.32 7 8 C5.83035398 6.8572081 4.66435444 5.71068285 3.5 4.5625 C2.8503125 3.92441406 2.200625 3.28632813 1.53125 2.62890625 C0 1 0 1 0 0 Z " fill="#A5C6D9" transform="translate(137,144)"/>
<path d="M0 0 C2.31 0.33 4.62 0.66 7 1 C7 2.98 7 4.96 7 7 C5.83040013 6.02433888 4.66438823 5.044375 3.5 4.0625 C2.8503125 3.51722656 2.200625 2.97195312 1.53125 2.41015625 C1.0259375 1.94480469 0.520625 1.47945313 0 1 C0 0.67 0 0.34 0 0 Z " fill="#9FC4D4" transform="translate(57,64)"/>
<path d="M0 0 C0.99 0.495 0.99 0.495 2 1 C1.01 1.495 1.01 1.495 0 2 C0 1.34 0 0.68 0 0 Z M-2 2 C-1.34 2.33 -0.68 2.66 0 3 C-1 6 -1 6 -3.4375 7.75 C-4.7059375 8.36875 -4.7059375 8.36875 -6 9 C-6.66 8.67 -7.32 8.34 -8 8 C-7.38125 7.7525 -6.7625 7.505 -6.125 7.25 C-3.64931313 5.79371361 -3.04874998 4.62187494 -2 2 Z " fill="#E7F4F9" transform="translate(344,18)"/>
<path d="M0 0 C1.17539996 0.92652701 2.34010577 1.86663387 3.5 2.8125 C4.1496875 3.33457031 4.799375 3.85664063 5.46875 4.39453125 C7 6 7 6 7 9 C4 8 4 8 2.9375 6 C2.628125 5.34 2.31875 4.68 2 4 C1.34 3.67 0.68 3.34 0 3 C0 2.01 0 1.02 0 0 Z " fill="#EAF9FD" transform="translate(608,7)"/>
<path d="M0 0 C0.66 0 1.32 0 2 0 C0.64531705 4.87685861 -1.71675909 6.48592381 -6 9 C-5.34 7.35 -4.68 5.7 -4 4 C-3.01 4 -2.02 4 -1 4 C-0.67 2.68 -0.34 1.36 0 0 Z " fill="#E7F7FB" transform="translate(309,1185)"/>
<path d="M0 0 C-0.8125 2.4375 -0.8125 2.4375 -2 5 C-2.99 5.33 -3.98 5.66 -5 6 C-5.33 5.01 -5.66 4.02 -6 3 C-4.60722783 0.21445565 -3.01148006 0 0 0 Z " fill="#EAF8FB" transform="translate(367,1129)"/>
<path d="M0 0 C0.99 0.33 1.98 0.66 3 1 C0.69 3.31 -1.62 5.62 -4 8 C-4.33 7.01 -4.66 6.02 -5 5 C-3.35 3.35 -1.7 1.7 0 0 Z " fill="#BED5DF" transform="translate(325,1120)"/>
<path d="M0 0 C0.99 0.33 1.98 0.66 3 1 C0.61042731 4.24299151 -1.2047869 6.50902342 -5 8 C-4.67 6.68 -4.34 5.36 -4 4 C-3.01 4 -2.02 4 -1 4 C-0.67 2.68 -0.34 1.36 0 0 Z " fill="#ECFAFB" transform="translate(452,1042)"/>
<path d="M0 0 C0.66 0.33 1.32 0.66 2 1 C-0.31 3.31 -2.62 5.62 -5 8 C-5.33 6.68 -5.66 5.36 -6 4 C-4.02 2.68 -2.04 1.36 0 0 Z " fill="#C7DEE6" transform="translate(430,1016)"/>
<path d="M0 0 C1.14926266 0.95421808 2.29430541 1.91352045 3.4375 2.875 C4.07558594 3.40867187 4.71367187 3.94234375 5.37109375 4.4921875 C7 6 7 6 8 8 C7.01 8.33 6.02 8.66 5 9 C4.16094435 7.87926138 3.32892169 6.75325453 2.5 5.625 C2.0359375 4.99851562 1.571875 4.37203125 1.09375 3.7265625 C0 2 0 2 0 0 Z " fill="#CCE1EB" transform="translate(288,740)"/>
<path d="M0 0 C0.66 0.66 1.32 1.32 2 2 C-1.61328125 6.6875 -1.61328125 6.6875 -3 8 C-3.99 8 -4.98 8 -6 8 C-6 6 -6 6 -4.125 3.875 C-2 2 -2 2 0 2 C0 1.34 0 0.68 0 0 Z " fill="#EBF8FC" transform="translate(330,32)"/>
<path d="M0 0 C0.66 0.33 1.32 0.66 2 1 C-0.64 3.64 -3.28 6.28 -6 9 C-6.33 8.01 -6.66 7.02 -7 6 C-4.69 4.02 -2.38 2.04 0 0 Z " fill="#BED4DE" transform="translate(311,1135)"/>
<path d="M0 0 C1.98 1.65 3.96 3.3 6 5 C5.67 5.99 5.34 6.98 5 8 C3.0625 7.375 3.0625 7.375 1 6 C0.25 2.875 0.25 2.875 0 0 Z " fill="#CFE5EF" transform="translate(433,885)"/>
<path d="M0 0 C0.598125 0.309375 1.19625 0.61875 1.8125 0.9375 C4.08956772 2.10209704 4.08956772 2.10209704 7 3 C8.1875 6.0625 8.1875 6.0625 9 9 C7.87105124 8.06725891 6.74699124 7.12859878 5.625 6.1875 C4.99851562 5.66542969 4.37203125 5.14335938 3.7265625 4.60546875 C2 3 2 3 0 0 Z " fill="#A1C3D2" transform="translate(72,79)"/>
<path d="M0 0 C0.33 0.99 0.66 1.98 1 3 C0.01 3.495 0.01 3.495 -1 4 C-0.34 4.66 0.32 5.32 1 6 C-0.65 6.33 -2.3 6.66 -4 7 C-3.43628586 3.73045798 -2.50037734 2.17424117 0 0 Z " fill="#97CCE0" transform="translate(307,1193)"/>
<path d="M0 0 C-0.66 1.98 -1.32 3.96 -2 6 C-3.32 5.34 -4.64 4.68 -6 4 C-2.25 0 -2.25 0 0 0 Z " fill="#A1CFE0" transform="translate(343,1160)"/>
<path d="M0 0 C0.99 0.33 1.98 0.66 3 1 C0.69 3.31 -1.62 5.62 -4 8 C-4.33 7.01 -4.66 6.02 -5 5 C-3.35 3.35 -1.7 1.7 0 0 Z " fill="#BAD4DC" transform="translate(293,1152)"/>
<path d="M0 0 C1.32 0.33 2.64 0.66 4 1 C1.69 3.31 -0.62 5.62 -3 8 C-3.33 7.01 -3.66 6.02 -4 5 C-3.01 4.34 -2.02 3.68 -1 3 C-0.67 2.01 -0.34 1.02 0 0 Z " fill="#C3DAE4" transform="translate(356,1088)"/>
<path d="M0 0 C3.3 0.33 6.6 0.66 10 1 C9.67 1.99 9.34 2.98 9 4 C6.03 3.01 3.06 2.02 0 1 C0 0.67 0 0.34 0 0 Z " fill="#C6DFEA" transform="translate(531,1020)"/>
<path d="M0 0 C2.88575819 0.39803561 3.82189513 0.79009069 5.75 3.0625 C6.1625 3.701875 6.575 4.34125 7 5 C6.34 5.66 5.68 6.32 5 7 C3.5 5.6875 3.5 5.6875 2 4 C2 3.01 2 2.02 2 1 C1.34 0.67 0.68 0.34 0 0 Z " fill="#CBE3EA" transform="translate(296,750)"/>
<path d="M0 0 C1.65 1.65 3.3 3.3 5 5 C4.34 5.66 3.68 6.32 3 7 C3 6.01 3 5.02 3 4 C2.34 4 1.68 4 1 4 C0.67 4.66 0.34 5.32 0 6 C-0.38218767 4.34385343 -0.71395102 2.67542976 -1 1 C-0.67 0.67 -0.34 0.34 0 0 Z " fill="#C2DFE8" transform="translate(130,582)"/>
<path d="M0 0 C3.36720387 1.39332574 4.9859524 2.9789286 7 6 C5.68 5.67 4.36 5.34 3 5 C3 4.34 3 3.68 3 3 C1.68 3 0.36 3 -1 3 C-0.67 2.01 -0.34 1.02 0 0 Z " fill="#C4DBE8" transform="translate(93,546)"/>
<path d="M0 0 C1.98 1.65 3.96 3.3 6 5 C5.01 6.485 5.01 6.485 4 8 C2 6.25 2 6.25 0 4 C0 2.68 0 1.36 0 0 Z " fill="#E4F4FA" transform="translate(144,152)"/>
<path d="M0 0 C1.8125 0.1875 1.8125 0.1875 4 1 C5.8125 3.4375 5.8125 3.4375 7 6 C6.67 6.66 6.34 7.32 6 8 C4.99403703 7.0479279 3.99538437 6.08812654 3 5.125 C2.443125 4.59132813 1.88625 4.05765625 1.3125 3.5078125 C0 2 0 2 0 0 Z " fill="#9DC3D2" transform="translate(34,40)"/>
<path d="M0 0 C0.99 0.33 1.98 0.66 3 1 C1.07423885 3.43929746 -0.80090595 5.80090595 -3 8 C-3.33 7.01 -3.66 6.02 -4 5 C-2.0625 2.3125 -2.0625 2.3125 0 0 Z " fill="#ACCDDA" transform="translate(368,1129)"/>
<path d="M0 0 C2.31 0.33 4.62 0.66 7 1 C6.67 2.65 6.34 4.3 6 6 C3.97945196 4.35830472 1.97956942 2.69088222 0 1 C0 0.67 0 0.34 0 0 Z " fill="#A1C7D5" transform="translate(113,120)"/>
<path d="M0 0 C1.98 0.66 3.96 1.32 6 2 C6.33 3.65 6.66 5.3 7 7 C5.83040013 6.02433888 4.66438823 5.044375 3.5 4.0625 C2.8503125 3.51722656 2.200625 2.97195312 1.53125 2.41015625 C1.0259375 1.94480469 0.520625 1.47945313 0 1 C0 0.67 0 0.34 0 0 Z " fill="#9DC4CF" transform="translate(65,72)"/>
<path d="M0 0 C0.66 0 1.32 0 2 0 C1.60196439 2.88575819 1.20990931 3.82189513 -1.0625 5.75 C-1.701875 6.1625 -2.34125 6.575 -3 7 C-2.38722388 4.03824877 -1.74627478 2.61941217 0 0 Z " fill="#BDD6E5" transform="translate(331,1113)"/>
<path d="M0 0 C0.66 0 1.32 0 2 0 C3.38938077 1.96147874 4.7260411 3.96166576 6 6 C3.03 5.505 3.03 5.505 0 5 C0 3.35 0 1.7 0 0 Z " fill="#CCE4EC" transform="translate(649,1101)"/>
<path d="M0 0 C0.66 0.33 1.32 0.66 2 1 C-0.31 3.31 -2.62 5.62 -5 8 C-5 5 -5 5 -2.5 2.3125 C-1.675 1.549375 -0.85 0.78625 0 0 Z " fill="#C5DCE4" transform="translate(390,1056)"/>
<path d="M0 0 C0.66 0.33 1.32 0.66 2 1 C-1.465 3.97 -1.465 3.97 -5 7 C-3.92643531 2.70574125 -3.4915227 2.25259529 0 0 Z " fill="#C6DEE3" transform="translate(398,1048)"/>
<path d="M0 0 C3.36720387 1.39332574 4.9859524 2.9789286 7 6 C5.68 6 4.36 6 3 6 C3 5.01 3 4.02 3 3 C2.01 2.67 1.02 2.34 0 2 C0 1.34 0 0.68 0 0 Z " fill="#CFE5ED" transform="translate(441,894)"/>
<path d="M0 0 C1.14926266 0.95421808 2.29430541 1.91352045 3.4375 2.875 C4.07558594 3.40867187 4.71367187 3.94234375 5.37109375 4.4921875 C7 6 7 6 8 8 C5.04987143 6.63029745 2.4347778 5.17390875 0 3 C0 2.01 0 1.02 0 0 Z " fill="#CEE3EC" transform="translate(345,797)"/>
<path d="M0 0 C2.31 1.98 4.62 3.96 7 6 C6.01 6.33 5.02 6.66 4 7 C0 2.25 0 2.25 0 0 Z " fill="#C6DEE6" transform="translate(135,587)"/>
<path d="M0 0 C1.65 1.65 3.3 3.3 5 5 C4.01 5.495 4.01 5.495 3 6 C0.875 5.0625 0.875 5.0625 -1 4 C-0.67 2.68 -0.34 1.36 0 0 Z " fill="#C2DDEA" transform="translate(54,506)"/>
<path d="M0 0 C2.31 1.98 4.62 3.96 7 6 C6.01 6.33 5.02 6.66 4 7 C0 2.25 0 2.25 0 0 Z " fill="#ECFAFE" transform="translate(737,136)"/>
<path d="M0 0 C1.32 0 2.64 0 4 0 C4 1.98 4 3.96 4 6 C2.35 4.35 0.7 2.7 -1 1 C-0.67 0.67 -0.34 0.34 0 0 Z " fill="#9EC6D9" transform="translate(92,97)"/>
<path d="M0 0 C1.98 0.66 3.96 1.32 6 2 C6.33 3.65 6.66 5.3 7 7 C5.83040013 6.02433888 4.66438823 5.044375 3.5 4.0625 C2.8503125 3.51722656 2.200625 2.97195312 1.53125 2.41015625 C1.0259375 1.94480469 0.520625 1.47945312 0 1 C0 0.67 0 0.34 0 0 Z " fill="#9FC2D1" transform="translate(41,48)"/>
</svg>
